<?xml version="1.0" encoding="UTF-8"?>
<svg version="1.1" xmlns="http://www.w3.org/2000/svg" width="500" height="500">
<path d="M0 0 C1.15325272 0.01886765 2.30650543 0.03773529 3.4947052 0.05717468 C5.90383461 0.09867598 8.31291106 0.14336745 10.72192383 0.19116211 C14.42323821 0.26227026 18.12455893 0.31613831 21.82617188 0.36914062 C24.17580031 0.41172154 26.52541084 0.45530439 28.875 0.5 C29.98320602 0.51468826 31.09141205 0.52937653 32.23320007 0.54450989 C33.25218887 0.56760727 34.27117767 0.59070465 35.32104492 0.61450195 C36.21893234 0.63084183 37.11681976 0.6471817 38.04191589 0.66401672 C40.20703125 0.94921875 40.20703125 0.94921875 42.20703125 2.94921875 C44.20720387 13.74276052 43.35950697 25.42228309 43.33740234 36.35131836 C43.33203698 39.50834949 43.33737761 42.66523877 43.34375 45.82226562 C43.35408492 70.19908755 41.34693179 92.51010336 23.20703125 110.94921875 C20.96875 112.21875 20.96875 112.21875 19.20703125 112.94921875 C19.20703125 113.60921875 19.20703125 114.26921875 19.20703125 114.94921875 C5.06875762 126.72725685 -10.91089611 131.33835352 -29.1484375 131.14453125 C-30.17608719 131.14170135 -31.20373688 131.13887146 -32.26252747 131.13595581 C-35.50196646 131.12487975 -38.74111521 131.09979958 -41.98046875 131.07421875 C-44.19465743 131.06417267 -46.4088505 131.05504969 -48.62304688 131.046875 C-54.01311763 131.02498184 -59.40302245 130.99163239 -64.79296875 130.94921875 C-64.79100494 131.59457077 -64.78904114 132.23992279 -64.78701782 132.90483093 C-64.77913261 135.88186501 -64.77431584 138.85889688 -64.76953125 141.8359375 C-64.76481812 143.35809875 -64.76481812 143.35809875 -64.76000977 144.91101074 C-64.7524503 151.20426545 -64.86599265 157.47561912 -65.16796875 163.76171875 C-65.21352905 164.81220398 -65.21352905 164.81220398 -65.26000977 165.88391113 C-65.55272958 170.70897958 -65.55272958 170.70897958 -67.79296875 172.94921875 C-69.91148376 173.21664429 -69.91148376 173.21664429 -72.56225586 173.23974609 C-73.55345932 173.2525058 -74.54466278 173.2652655 -75.56590271 173.27841187 C-76.63985794 173.28063751 -77.71381317 173.28286316 -78.8203125 173.28515625 C-80.4700985 173.29514145 -80.4700985 173.29514145 -82.1532135 173.30532837 C-84.48257775 173.3154674 -86.81197113 173.320145 -89.14135742 173.31982422 C-92.71256173 173.32419682 -96.28253023 173.36050332 -99.85351562 173.3984375 C-102.11327701 173.40430537 -104.37304428 173.40827496 -106.6328125 173.41015625 C-108.240709 173.4317128 -108.240709 173.4317128 -109.88108826 173.45370483 C-111.37262169 173.44447495 -111.37262169 173.44447495 -112.89428711 173.43505859 C-113.76983749 173.43790863 -114.64538788 173.44075867 -115.54747009 173.44369507 C-117.79296875 172.94921875 -117.79296875 172.94921875 -119.57685852 171.25563049 C-121.04028262 168.48017606 -121.16146925 166.69142786 -121.14941406 163.56079102 C-121.15241516 162.48189102 -121.15541626 161.40299103 -121.1585083 160.29139709 C-121.1461615 159.1278923 -121.1338147 157.96438751 -121.12109375 156.765625 C-121.11922058 155.55913803 -121.11734741 154.35265106 -121.11541748 153.10960388 C-121.10869118 150.55163824 -121.09476536 147.99368298 -121.07421875 145.43579102 C-121.04333737 141.55800596 -121.03327137 137.6806297 -121.02734375 133.80273438 C-121.0181613 131.31119306 -121.00778163 128.81965582 -120.99609375 126.328125 C-120.99184387 125.18283829 -120.98759399 124.03755157 -120.98321533 122.8575592 C-120.6430291 83.65109572 -102.35095088 63.32665926 -75.84985352 36.76586914 C-73.22535459 34.13158553 -70.61173216 31.4868043 -67.99804688 28.84179688 C-66.30404503 27.14126975 -64.60940534 25.44137773 -62.9140625 23.7421875 C-61.76362709 22.57323189 -61.76362709 22.57323189 -60.58995056 21.38066101 C-42.91218533 3.77415058 -24.33123441 -0.46516375 0 0 Z " fill="#D22B8A" transform="translate(288.79296875,163.05078125)"/>
<path d="M0 0 C0.9744104 0.0136409 1.9488208 0.0272818 2.95275879 0.04133606 C4.53558655 0.07247749 4.53558655 0.07247749 6.15039062 0.10424805 C7.23042358 0.12311569 8.31045654 0.14198334 9.42321777 0.16142273 C11.70976862 0.20334833 13.99626928 0.24809 16.28271484 0.29541016 C19.79189007 0.36567146 23.30108006 0.41996126 26.81054688 0.47338867 C29.02801382 0.51602996 31.24546281 0.55961788 33.46289062 0.60424805 C35.04571838 0.62628044 35.04571838 0.62628044 36.66052246 0.64875793 C37.63493286 0.67185532 38.60934326 0.6949527 39.61328125 0.71875 C40.47328735 0.73508987 41.33329346 0.75142975 42.21936035 0.76826477 C44.30664062 1.0534668 44.30664062 1.0534668 46.30664062 3.0534668 C48.30681325 13.84700857 47.45911634 25.52653113 47.43701172 36.45556641 C47.43164635 39.61259754 47.43698699 42.76948682 47.44335938 45.92651367 C47.45523771 72.69750754 47.45523771 72.69750754 44.43164062 81.9909668 C44.10421875 83.03124023 43.77679688 84.07151367 43.43945312 85.14331055 C42.31282476 88.03757996 41.0937584 90.5131397 39.30664062 93.0534668 C38.64664063 93.0534668 37.98664063 93.0534668 37.30664062 93.0534668 C37.24476563 93.6103418 37.18289063 94.1672168 37.11914062 94.7409668 C35.95856372 98.04414721 33.90450617 99.77241412 31.30664062 102.0534668 C30.64664063 102.0534668 29.98664063 102.0534668 29.30664062 102.0534668 C29.30664062 103.0434668 29.30664062 104.0334668 29.30664062 105.0534668 C28.64664063 105.0534668 27.98664063 105.0534668 27.30664062 105.0534668 C27.30664062 106.3734668 27.30664062 107.6934668 27.30664062 109.0534668 C25.65664063 109.3834668 24.00664062 109.7134668 22.30664062 110.0534668 C22.30664062 110.7134668 22.30664062 111.3734668 22.30664062 112.0534668 C20.82164062 112.5484668 20.82164062 112.5484668 19.30664062 113.0534668 C19.30664062 113.7134668 19.30664062 114.3734668 19.30664062 115.0534668 C18.31664062 115.0534668 17.32664062 115.0534668 16.30664062 115.0534668 C16.03851563 115.8372168 15.77039063 116.6209668 15.49414062 117.4284668 C14.30664062 120.0534668 14.30664062 120.0534668 11.30664062 122.0534668 C7.96950529 122.90369236 4.61343959 123.58027727 1.24023438 124.2722168 C-1.79110998 124.81700195 -1.79110998 124.81700195 -3.69335938 127.0534668 C-6.50584836 127.98836907 -9.09668589 128.18365397 -12.04711914 128.19873047 C-12.89802628 128.20511032 -13.74893341 128.21149017 -14.62562561 128.21806335 C-15.53614182 128.21917618 -16.44665802 128.220289 -17.38476562 128.22143555 C-18.32642075 128.22476395 -19.26807587 128.22809235 -20.23826599 128.23152161 C-22.22614046 128.23657819 -24.2140234 128.23893032 -26.2019043 128.23876953 C-29.24802513 128.24096116 -32.29378672 128.25914435 -35.33984375 128.27807617 C-37.27148314 128.28100928 -39.20312424 128.28299463 -41.13476562 128.28393555 C-42.50357628 128.29471382 -42.50357628 128.29471382 -43.90003967 128.30570984 C-44.74779465 128.30263321 -45.59554962 128.29955658 -46.46899414 128.29638672 C-47.21415787 128.29781174 -47.95932159 128.29923676 -48.72706604 128.30070496 C-50.69335937 128.0534668 -50.69335937 128.0534668 -53.69335938 126.0534668 C-52.14052812 124.41922497 -50.57567128 122.79640432 -49.00585938 121.1784668 C-47.70068359 119.82108398 -47.70068359 119.82108398 -46.36914062 118.4362793 C-43.78403358 116.13421317 -41.88017082 115.23478483 -38.69335938 114.0534668 C-37.68148043 112.39398532 -36.68070478 110.72766118 -35.69335938 109.0534668 C-33.50585937 108.2409668 -33.50585937 108.2409668 -31.69335938 108.0534668 C-31.60441406 107.29936523 -31.51546875 106.54526367 -31.42382812 105.76831055 C-30.55657484 102.54509648 -29.58577595 101.66515768 -27.00585938 99.6159668 C-26.28785156 99.02041992 -25.56984375 98.42487305 -24.83007812 97.8112793 C-23.77240234 96.94116211 -23.77240234 96.94116211 -22.69335938 96.0534668 C-18.55160819 92.42605072 -16.19751593 89.44336112 -14.69335938 84.0534668 C-14.03335938 83.7234668 -13.37335938 83.3934668 -12.69335938 83.0534668 C-12.03780818 80.52613445 -12.03780818 80.52613445 -11.69335938 78.0534668 C-11.03335938 78.0534668 -10.37335938 78.0534668 -9.69335938 78.0534668 C-9.69335938 77.0634668 -9.69335938 76.0734668 -9.69335938 75.0534668 C-9.03335938 75.0534668 -8.37335938 75.0534668 -7.69335938 75.0534668 C-7.36335938 50.6334668 -7.03335938 26.2134668 -6.69335938 1.0534668 C-4.2473781 -0.16952384 -2.73166355 -0.04431964 0 0 Z " fill="#398BF3" transform="translate(284.693359375,162.946533203125)"/>
<path d="M0 0 C0.66 0 1.32 0 2 0 C2.02332902 7.48538793 2.04101866 14.97077202 2.05181217 22.4561882 C2.05699653 25.93320769 2.06401176 29.41020202 2.07543945 32.88720703 C2.0885392 36.89876526 2.09326492 40.91029771 2.09765625 44.921875 C2.10281754 46.15049255 2.10797882 47.37911011 2.11329651 48.6449585 C2.11377664 56.14795206 1.75463584 63.53460817 1 71 C0.34 71 -0.32 71 -1 71 C-1 71.99 -1 72.98 -1 74 C-1.66 74 -2.32 74 -3 74 C-3 75.65 -3 77.3 -3 79 C-3.99 79.33 -4.98 79.66 -6 80 C-6.03222656 80.84820312 -6.06445312 81.69640625 -6.09765625 82.5703125 C-7.34310903 87.3041114 -9.94924715 89.57701549 -13.4375 92.875 C-14.3356543 93.76445312 -14.3356543 93.76445312 -15.25195312 94.671875 C-19.7047361 99 -19.7047361 99 -22 99 C-22.0928125 100.1446875 -22.0928125 100.1446875 -22.1875 101.3125 C-23.26264517 104.86874941 -24.84236488 105.22864371 -28 107 C-28.4640625 107.99 -28.4640625 107.99 -28.9375 109 C-30 111 -30 111 -32.625 112.25 C-37.28490697 114.66624806 -40.4405582 118.19663706 -44 122 C-41.7193412 123.1403294 -40.43885951 123.13228831 -37.9050293 123.14526367 C-36.63812508 123.15483345 -36.63812508 123.15483345 -35.34562683 123.16459656 C-34.43106216 123.16570938 -33.5164975 123.1668222 -32.57421875 123.16796875 C-31.16460625 123.17296135 -31.16460625 123.17296135 -29.72651672 123.17805481 C-27.73508189 123.18312391 -25.74363854 123.18546314 -23.75219727 123.18530273 C-20.71030578 123.18748365 -17.66878014 123.20562415 -14.62695312 123.22460938 C-12.69270957 123.22754443 -10.7584643 123.22952848 -8.82421875 123.23046875 C-7.91572678 123.23765427 -7.0072348 123.24483978 -6.07121277 123.25224304 C-1.58812669 123.23609335 1.92550295 123.0963745 6 121 C9.9120852 119.46584894 13.74121367 118.06787838 17.8125 117 C20.86177718 116.04336402 22.12232031 115.50357292 24 113 C24.33 112.34 24.66 111.68 25 111 C25.99 111 26.98 111 28 111 C27.67 110.01 27.34 109.02 27 108 C28.32 108 29.64 108 31 108 C31 107.34 31 106.68 31 106 C32.65 105.67 34.3 105.34 36 105 C36 103.68 36 102.36 36 101 C36.66 101 37.32 101 38 101 C38 100.01 38 99.02 38 98 C40.375 95.3125 40.375 95.3125 43 93 C43.66 93 44.32 93 45 93 C45.495 91.02 45.495 91.02 46 89 C46.66 89.33 47.32 89.66 48 90 C44.13857682 97.00614281 39.88856931 103.509307 34 109 C33.34 109 32.68 109 32 109 C32 109.66 32 110.32 32 111 C30.1374683 112.55160169 28.302219 113.940008 26.3125 115.3125 C25.73250244 115.71404297 25.15250488 116.11558594 24.55493164 116.52929688 C16.19029383 122.10797518 6.53572523 126.13634172 -3.59472656 126.11352539 C-4.71558655 126.11344986 -5.83644653 126.11337433 -6.99127197 126.11329651 C-8.19555847 126.10813522 -9.39984497 126.10297394 -10.640625 126.09765625 C-11.87794373 126.0962413 -13.11526245 126.09482635 -14.39007568 126.09336853 C-17.67144941 126.0887211 -20.95277373 126.07974347 -24.23413086 126.06866455 C-27.58577011 126.0584152 -30.93741148 126.05394859 -34.2890625 126.04882812 C-40.85939431 126.03780025 -47.42969311 126.02106296 -54 126 C-54.05886171 122.20840036 -54.09388224 118.41692081 -54.125 114.625 C-54.14175781 113.56410156 -54.15851563 112.50320313 -54.17578125 111.41015625 C-54.27865147 94.64231114 -54.27865147 94.64231114 -50.5559082 90.32543945 C-41.43266593 82.55357655 -32.96831194 82.41171267 -21.4543457 83.30981445 C-15.85902564 83.77369407 -15.85902564 83.77369407 -11.01074219 81.43701172 C-9.37916048 79.54476109 -9.37916048 79.54476109 -8.09912109 77.52905273 C-7.73641113 77.02446533 -7.37370117 76.51987793 -7 76 C-6.34 76 -5.68 76 -5 76 C-4.8453125 74.700625 -4.8453125 74.700625 -4.6875 73.375 C-4 70 -4 70 -2.48405457 67.19882202 C-0.84307007 63.66174362 -0.60594428 61.32156091 -0.56762695 57.44384766 C-0.54783279 56.16297272 -0.52803864 54.88209778 -0.50764465 53.56240845 C-0.50087642 52.17962796 -0.49442938 50.79684588 -0.48828125 49.4140625 C-0.471421 47.9877265 -0.45326895 46.56140524 -0.43388367 45.13510132 C-0.38652312 41.39679571 -0.35662407 37.65854988 -0.33044434 33.92004395 C-0.30056799 30.09891968 -0.25406212 26.27800106 -0.20898438 22.45703125 C-0.12311019 14.97145652 -0.05569486 7.48586659 0 0 Z " fill="#651E75" transform="translate(276,167)"/>
<path d="M0 0 C0 3.78319079 -0.39657934 7.25879194 -1 11 C-1.66 11.33 -2.32 11.66 -3 12 C-3 9.69 -3 7.38 -3 5 C-11.40976858 4.69965112 -17.43596004 5.49619431 -24.1328125 10.7734375 C-26.91041326 12.5980539 -29.87956461 13.32966759 -33.08203125 14.12890625 C-35.60763104 15.27597092 -35.86384051 16.52528823 -37 19 C-38.76877681 20.63671881 -40.62995975 22.06631597 -42.5390625 23.53515625 C-44.35308104 25.00921817 -44.35308104 25.00921817 -44 28 C-44.556875 28.061875 -45.11375 28.12375 -45.6875 28.1875 C-48.98942866 29.3476371 -50.62907991 31.45559795 -53 34 C-54.66666667 35.66666667 -56.33333333 37.33333333 -58 39 C-58.825 39.845625 -59.65 40.69125 -60.5 41.5625 C-62.89178403 43.89448943 -65.39394339 45.91515471 -68 48 C-71.77714996 51.59289875 -75.64580902 55.29161804 -78 60 C-78.804375 60.433125 -79.60875 60.86625 -80.4375 61.3125 C-83.41434947 63.27286429 -84.00305041 64.64662411 -85 68 C-86.485 67.505 -86.485 67.505 -88 67 C-88.41378906 67.83337891 -88.41378906 67.83337891 -88.8359375 68.68359375 C-89.64130031 70.2862117 -90.45992031 71.88221078 -91.2890625 73.47265625 C-91.72992188 74.32730469 -92.17078125 75.18195313 -92.625 76.0625 C-93.07101563 76.91972656 -93.51703125 77.77695313 -93.9765625 78.66015625 C-95.2003693 81.03244988 -95.2003693 81.03244988 -95 84 C-96.485 84.495 -96.485 84.495 -98 85 C-101.32369756 90.18007714 -102.37780233 94.95516278 -102 101 C-102.495 101.495 -102.495 101.495 -103 102 C-104.53977231 115.40929917 -104.11675908 129.02941518 -104.0625 142.5 C-104.05747161 144.69140522 -104.05291109 146.88281156 -104.04882812 149.07421875 C-104.03793636 154.38283753 -104.02130585 159.69141332 -104 165 C-103.01 165.33 -102.02 165.66 -101 166 C-100.3125 168.0625 -100.3125 168.0625 -100 170 C-95.61433929 171.08794502 -91.34417235 171.12897314 -86.85546875 171.09765625 C-86.08568192 171.0962413 -85.31589508 171.09482635 -84.52278137 171.09336853 C-82.07764712 171.08779606 -79.63260632 171.07524871 -77.1875 171.0625 C-75.52408987 171.05748144 -73.8606783 171.05291915 -72.19726562 171.04882812 C-68.13147472 171.03783566 -64.06575317 171.0205901 -60 171 C-59.71125 169.88625 -59.4225 168.7725 -59.125 167.625 C-58 164 -58 164 -56 162 C-55.70441224 159.08664632 -55.70441224 159.08664632 -55.76953125 155.671875 C-55.77146484 154.39699219 -55.77339844 153.12210938 -55.77539062 151.80859375 C-55.78469604 150.80868408 -55.78469604 150.80868408 -55.79418945 149.78857422 C-55.81230527 147.77167956 -55.8147 145.75524834 -55.81445312 143.73828125 C-55.78856753 136.78766851 -55.78856753 136.78766851 -56.53173828 129.89501953 C-56.99598693 127.02481072 -56.96249376 124.70141117 -56.66015625 121.8203125 C-56.56669922 120.8921875 -56.47324219 119.9640625 -56.37695312 119.0078125 C-56.27318359 118.05648437 -56.16941406 117.10515625 -56.0625 116.125 C-55.96259766 115.15046875 -55.86269531 114.1759375 -55.75976562 113.171875 C-55.51358634 110.7804191 -55.26013937 108.38997076 -55 106 C-54.67 106 -54.34 106 -54 106 C-54 113.92 -54 121.84 -54 130 C-37.83 130 -21.66 130 -5 130 C-5 130.33 -5 130.66 -5 131 C-20.51 131 -36.02 131 -52 131 C-52 138.59 -52 146.18 -52 154 C-52.63576159 170.63576159 -52.63576159 170.63576159 -55 173 C-57.11851501 173.26742554 -57.11851501 173.26742554 -59.76928711 173.29052734 C-60.76049057 173.30328705 -61.75169403 173.31604675 -62.77293396 173.32919312 C-63.84688919 173.33141876 -64.92084442 173.33364441 -66.02734375 173.3359375 C-67.67712975 173.3459227 -67.67712975 173.3459227 -69.36024475 173.35610962 C-71.689609 173.36624865 -74.01900238 173.37092625 -76.34838867 173.37060547 C-79.91959298 173.37497807 -83.48956148 173.41128457 -87.06054688 173.44921875 C-89.32030826 173.45508662 -91.58007553 173.45905621 -93.83984375 173.4609375 C-95.44774025 173.48249405 -95.44774025 173.48249405 -97.08811951 173.50448608 C-98.57965294 173.4952562 -98.57965294 173.4952562 -100.10131836 173.48583984 C-100.97686874 173.48868988 -101.85241913 173.49153992 -102.75450134 173.49447632 C-105 173 -105 173 -106.78388977 171.30641174 C-108.24731387 168.53095731 -108.3685005 166.74220911 -108.35644531 163.61157227 C-108.35944641 162.53267227 -108.36244751 161.45377228 -108.36553955 160.34217834 C-108.35319275 159.17867355 -108.34084595 158.01516876 -108.328125 156.81640625 C-108.32625183 155.60991928 -108.32437866 154.40343231 -108.32244873 153.16038513 C-108.31572243 150.60241949 -108.30179661 148.04446423 -108.28125 145.48657227 C-108.25036862 141.60878721 -108.24030262 137.73141095 -108.234375 133.85351562 C-108.22519255 131.36197431 -108.21481288 128.87043707 -108.203125 126.37890625 C-108.19887512 125.23361954 -108.19462524 124.08833282 -108.19024658 122.90834045 C-107.85006035 83.70187697 -89.55798213 63.37744051 -63.05688477 36.81665039 C-60.43238584 34.18236678 -57.81876341 31.53758555 -55.20507812 28.89257812 C-53.51107628 27.192051 -51.81643659 25.49215898 -50.12109375 23.79296875 C-48.97065834 22.62401314 -48.97065834 22.62401314 -47.79698181 21.43144226 C-33.98969201 7.6798063 -19.38813718 1.10789355 0 0 Z " fill="#F14F9D" transform="translate(276,163)"/>
<path d="M0 0 C0.66 0 1.32 0 2 0 C2.02332902 7.48538793 2.04101866 14.97077202 2.05181217 22.4561882 C2.05699653 25.93320769 2.06401176 29.41020202 2.07543945 32.88720703 C2.0885392 36.89876526 2.09326492 40.91029771 2.09765625 44.921875 C2.10281754 46.15049255 2.10797882 47.37911011 2.11329651 48.6449585 C2.11377664 56.14795206 1.75463584 63.53460817 1 71 C0.34 71 -0.32 71 -1 71 C-1 71.99 -1 72.98 -1 74 C-1.66 74 -2.32 74 -3 74 C-3 75.65 -3 77.3 -3 79 C-3.99 79.33 -4.98 79.66 -6 80 C-6.03222656 80.84820312 -6.06445312 81.69640625 -6.09765625 82.5703125 C-7.34310903 87.3041114 -9.94924715 89.57701549 -13.4375 92.875 C-14.3356543 93.76445312 -14.3356543 93.76445312 -15.25195312 94.671875 C-19.7047361 99 -19.7047361 99 -22 99 C-22.0928125 100.1446875 -22.0928125 100.1446875 -22.1875 101.3125 C-23.26264517 104.86874941 -24.84236488 105.22864371 -28 107 C-28.4640625 107.99 -28.4640625 107.99 -28.9375 109 C-30 111 -30 111 -32.625 112.25 C-37.28490697 114.66624806 -40.4405582 118.19663706 -44 122 C-41.7193412 123.1403294 -40.43885951 123.13228831 -37.9050293 123.14526367 C-36.63812508 123.15483345 -36.63812508 123.15483345 -35.34562683 123.16459656 C-34.43106216 123.16570938 -33.5164975 123.1668222 -32.57421875 123.16796875 C-31.16460625 123.17296135 -31.16460625 123.17296135 -29.72651672 123.17805481 C-27.73508189 123.18312391 -25.74363854 123.18546314 -23.75219727 123.18530273 C-20.71030578 123.18748365 -17.66878014 123.20562415 -14.62695312 123.22460938 C-12.69270957 123.22754443 -10.7584643 123.22952848 -8.82421875 123.23046875 C-7.91572678 123.23765427 -7.0072348 123.24483978 -6.07121277 123.25224304 C-1.58812669 123.23609335 1.92550295 123.0963745 6 121 C9.9120852 119.46584894 13.74121367 118.06787838 17.8125 117 C20.86177718 116.04336402 22.12232031 115.50357292 24 113 C24.33 112.34 24.66 111.68 25 111 C25.99 111 26.98 111 28 111 C27.67 110.01 27.34 109.02 27 108 C28.32 108 29.64 108 31 108 C31 107.34 31 106.68 31 106 C32.65 105.67 34.3 105.34 36 105 C36 103.68 36 102.36 36 101 C36.66 101 37.32 101 38 101 C38 100.01 38 99.02 38 98 C40.375 95.3125 40.375 95.3125 43 93 C43.66 93 44.32 93 45 93 C45.495 91.02 45.495 91.02 46 89 C46.66 89.33 47.32 89.66 48 90 C44.13857682 97.00614281 39.88856931 103.509307 34 109 C33.34 109 32.68 109 32 109 C32 109.66 32 110.32 32 111 C30.1374683 112.55160169 28.302219 113.940008 26.3125 115.3125 C25.73250244 115.71404297 25.15250488 116.11558594 24.55493164 116.52929688 C16.27045333 122.05451393 6.63404828 126.13699544 -3.41113281 126.11352539 C-4.49195129 126.11344986 -5.57276978 126.11337433 -6.68634033 126.11329651 C-7.84687927 126.10813522 -9.00741821 126.10297394 -10.203125 126.09765625 C-11.39605164 126.0962413 -12.58897827 126.09482635 -13.8180542 126.09336853 C-17.62872829 126.08777038 -21.43934366 126.07521819 -25.25 126.0625 C-27.83333248 126.05748476 -30.41666589 126.0529219 -33 126.04882812 C-39.33335337 126.03780155 -45.66667249 126.02106524 -52 126 C-48.84347046 120.56425715 -45.25895229 116.85468991 -40.125 113.25 C-36.18939888 110.38369428 -33.48096216 107.07803017 -30.640625 103.1484375 C-28.90827425 100.87988294 -27.1235777 98.90776696 -25 97 C-24.34 97 -23.68 97 -23 97 C-21.79371992 94.66785852 -20.8345262 92.50357861 -20 90 C-19.01 89.67 -18.02 89.34 -17 89 C-15.45833358 87.62514468 -15.45833358 87.62514468 -14 86 C-12.4375 84.3125 -12.4375 84.3125 -11 83 C-10.34 83 -9.68 83 -9 83 C-8.731875 82.360625 -8.46375 81.72125 -8.1875 81.0625 C-7 79 -7 79 -4 78 C-4.061875 77.29875 -4.12375 76.5975 -4.1875 75.875 C-4 73 -4 73 -2.51530457 70.24728394 C-0.81455999 66.60260374 -0.60538682 64.17100255 -0.56762695 60.16845703 C-0.5574353 59.51409164 -0.54724365 58.85972626 -0.53674316 58.18553162 C-0.50677553 56.04286966 -0.49737276 53.9006559 -0.48828125 51.7578125 C-0.4714224 50.26421644 -0.45327054 48.77063447 -0.43388367 47.27706909 C-0.38650799 43.36121014 -0.35661861 39.44540831 -0.33044434 35.52935791 C-0.30057573 31.52726973 -0.25406716 27.5253781 -0.20898438 23.5234375 C-0.12309289 15.68238853 -0.05568509 7.84132141 0 0 Z " fill="#434BE3" transform="translate(276,167)"/>
<path d="M0 0 C0 3.78319079 -0.39657934 7.25879194 -1 11 C-1.66 11.33 -2.32 11.66 -3 12 C-3 9.69 -3 7.38 -3 5 C-11.40976858 4.69965112 -17.43596004 5.49619431 -24.1328125 10.7734375 C-26.91041326 12.5980539 -29.87956461 13.32966759 -33.08203125 14.12890625 C-35.60763104 15.27597092 -35.86384051 16.52528823 -37 19 C-38.76877681 20.63671881 -40.62995975 22.06631597 -42.5390625 23.53515625 C-44.35308104 25.00921817 -44.35308104 25.00921817 -44 28 C-44.556875 28.061875 -45.11375 28.12375 -45.6875 28.1875 C-48.98942866 29.3476371 -50.62907991 31.45559795 -53 34 C-54.66666667 35.66666667 -56.33333333 37.33333333 -58 39 C-59.2375 40.2684375 -59.2375 40.2684375 -60.5 41.5625 C-62.89178403 43.89448943 -65.39394339 45.91515471 -68 48 C-71.77714996 51.59289875 -75.64580902 55.29161804 -78 60 C-78.804375 60.433125 -79.60875 60.86625 -80.4375 61.3125 C-83.41434947 63.27286429 -84.00305041 64.64662411 -85 68 C-85.99 67.67 -86.98 67.34 -88 67 C-88.495 67.99 -88.495 67.99 -89 69 C-88.59739864 63.49610398 -87.63697913 60.88741176 -83.73071289 57.00195312 C-82.36777855 55.62517395 -82.36777855 55.62517395 -80.97731018 54.22058105 C-79.97628512 53.24026638 -78.97471974 52.26050318 -77.97265625 51.28125 C-76.94319437 50.2553709 -75.91484612 49.2283732 -74.88755798 48.20031738 C-72.73194446 46.0493887 -70.56666248 43.90887998 -68.39331055 41.77587891 C-65.63133023 39.06457806 -62.88922006 36.33423866 -60.15361881 33.59635162 C-58.0292585 31.47281472 -55.89710786 29.35724381 -53.76238823 27.24412537 C-52.75014116 26.24131659 -51.739606 25.23677631 -50.73094368 24.23036194 C-35.72553199 9.29486542 -21.30672862 1.21752735 0 0 Z " fill="#F65F81" transform="translate(276,163)"/>
<path d="M0 0 C0.9744104 0.0136409 1.9488208 0.0272818 2.95275879 0.04133606 C4.53558655 0.07247749 4.53558655 0.07247749 6.15039062 0.10424805 C7.23042358 0.12311569 8.31045654 0.14198334 9.42321777 0.16142273 C11.70976862 0.20334833 13.99626928 0.24809 16.28271484 0.29541016 C19.79189007 0.36567146 23.30108006 0.41996126 26.81054688 0.47338867 C29.02801382 0.51602996 31.24546281 0.55961788 33.46289062 0.60424805 C35.04571838 0.62628044 35.04571838 0.62628044 36.66052246 0.64875793 C37.63493286 0.67185532 38.60934326 0.6949527 39.61328125 0.71875 C40.47328735 0.73508987 41.33329346 0.75142975 42.21936035 0.76826477 C44.30664062 1.0534668 44.30664062 1.0534668 46.30664062 3.0534668 C48.30681325 13.84700857 47.45911634 25.52653113 47.43701172 36.45556641 C47.43164635 39.61259754 47.43698699 42.76948682 47.44335938 45.92651367 C47.45522911 72.67799862 47.45522911 72.67799862 44.43164062 82.0534668 C44.10421875 83.1053418 43.77679688 84.1572168 43.43945312 85.2409668 C42.35735592 87.92755296 41.16198629 89.84825596 39.30664062 92.0534668 C41.02817634 83.84306569 41.02817634 83.84306569 42.04150391 80.96972656 C44.49338326 73.81247709 44.6934117 67.26233964 44.55664062 59.7409668 C44.54568359 58.51200684 44.53472656 57.28304687 44.5234375 56.0168457 C44.42522534 47.80438792 44.12567192 39.61041969 43.6652832 31.41088867 C43.19993965 22.95617283 43.21362238 14.5181267 43.30664062 6.0534668 C39.04849348 4.85296068 34.91653281 4.94652247 30.52539062 4.9909668 C29.67489136 4.99475342 28.82439209 4.99854004 27.94812012 5.00244141 C25.23424181 5.01464197 22.52047049 5.03326817 19.80664062 5.0534668 C16.23372669 5.08005946 12.66086634 5.10005908 9.08789062 5.1159668 C7.85806458 5.12841431 7.85806458 5.12841431 6.60339355 5.14111328 C2.92491946 5.15694298 -0.0992788 4.95198694 -3.69335938 4.0534668 C-4.02335937 7.0234668 -4.35335938 9.9934668 -4.69335938 13.0534668 C-5.02335937 13.0534668 -5.35335938 13.0534668 -5.69335938 13.0534668 C-6.02335937 9.0934668 -6.35335938 5.1334668 -6.69335938 1.0534668 C-4.2473781 -0.16952384 -2.73166355 -0.04431964 0 0 Z " fill="#7EBBCF" transform="translate(284.693359375,162.946533203125)"/>
<path d="M0 0 C0.33 0 0.66 0 1 0 C1 7.92 1 15.84 1 24 C17.17 24 33.34 24 50 24 C50 24.33 50 24.66 50 25 C34.49 25 18.98 25 3 25 C3 32.59 3 40.18 3 48 C2.36423841 64.63576159 2.36423841 64.63576159 0 67 C-2.06277466 67.24050903 -2.06277466 67.24050903 -4.63330078 67.22705078 C-6.07456833 67.22682419 -6.07456833 67.22682419 -7.54495239 67.22659302 C-8.58457123 67.21627045 -9.62419006 67.20594788 -10.6953125 67.1953125 C-11.75789276 67.1924826 -12.82047302 67.18965271 -13.91525269 67.18673706 C-17.31861499 67.17551639 -20.72171686 67.15040837 -24.125 67.125 C-26.42838162 67.11497264 -28.73176736 67.10584637 -31.03515625 67.09765625 C-36.69019345 67.07557093 -42.34507813 67.04207489 -48 67 C-47.01 66.505 -47.01 66.505 -46 66 C-45.505 65.01 -45.505 65.01 -45 64 C-44.34298096 64.16298584 -43.68596191 64.32597168 -43.0090332 64.49389648 C-39.2775283 65.12151593 -35.62584871 65.12396152 -31.85546875 65.09765625 C-31.08568192 65.0962413 -30.31589508 65.09482635 -29.52278137 65.09336853 C-27.07764712 65.08779606 -24.63260632 65.07524871 -22.1875 65.0625 C-20.52408987 65.05748144 -18.8606783 65.05291915 -17.19726562 65.04882812 C-13.13147472 65.03783566 -9.06575317 65.0205901 -5 65 C-4.71125 63.88625 -4.4225 62.7725 -4.125 61.625 C-3 58 -3 58 -1 56 C-0.70441224 53.08664632 -0.70441224 53.08664632 -0.76953125 49.671875 C-0.77146484 48.39699219 -0.77339844 47.12210937 -0.77539062 45.80859375 C-0.78159424 45.1419873 -0.78779785 44.47538086 -0.79418945 43.78857422 C-0.81230527 41.77167956 -0.8147 39.75524834 -0.81445312 37.73828125 C-0.78856753 30.78766851 -0.78856753 30.78766851 -1.53173828 23.89501953 C-1.99598693 21.02481072 -1.96249376 18.70141117 -1.66015625 15.8203125 C-1.56669922 14.8921875 -1.47324219 13.9640625 -1.37695312 13.0078125 C-1.27318359 12.05648438 -1.16941406 11.10515625 -1.0625 10.125 C-0.96259766 9.15046875 -0.86269531 8.1759375 -0.75976562 7.171875 C-0.51358634 4.7804191 -0.26013937 2.38997076 0 0 Z " fill="#CA4DAE" transform="translate(221,269)"/>
<path d="M0 0 C0.495 1.485 0.495 1.485 1 3 C0.34 3 -0.32 3 -1 3 C-0.99555878 3.79069382 -0.99111755 4.58138763 -0.98654175 5.39604187 C-0.94643122 12.85556232 -0.91599843 20.31503031 -0.89637566 27.77463055 C-0.88594819 31.60948483 -0.871808 35.44424983 -0.84912109 39.27905273 C-0.82735562 42.98136584 -0.81542357 46.68359319 -0.81024551 50.38596535 C-0.8065564 51.79692751 -0.79935246 53.2078851 -0.78853989 54.61881065 C-0.77397658 56.5982847 -0.77318266 58.57784544 -0.77294922 60.55737305 C-0.768508 61.68322311 -0.76406677 62.80907318 -0.75949097 63.96903992 C-1.0028829 67.03633114 -1.69810109 69.23017511 -3 72 C-3.33 72 -3.66 72 -4 72 C-4.33 70.02 -4.66 68.04 -5 66 C-11.60196104 65.97462356 -18.20390948 65.95712196 -24.8059082 65.94506836 C-27.05135569 65.94004281 -29.29679992 65.93322135 -31.54223633 65.92456055 C-34.77165534 65.91241719 -38.00103105 65.90675386 -41.23046875 65.90234375 C-42.23272995 65.89718246 -43.23499115 65.89202118 -44.2676239 65.88670349 C-45.20822159 65.88662796 -46.14881927 65.88655243 -47.11791992 65.88647461 C-47.94176682 65.884254 -48.76561371 65.88203339 -49.61442566 65.87974548 C-52.15755317 66.0079421 -54.51840931 66.44270612 -57 67 C-57.33 66.34 -57.66 65.68 -58 65 C-57.36908447 64.91435791 -56.73816895 64.82871582 -56.08813477 64.74047852 C-53.24564319 64.35216286 -50.40408131 63.95741919 -47.5625 63.5625 C-46.56927734 63.42779297 -45.57605469 63.29308594 -44.55273438 63.15429688 C-43.60849609 63.02216797 -42.66425781 62.89003906 -41.69140625 62.75390625 C-40.81685791 62.63345947 -39.94230957 62.5130127 -39.04125977 62.38891602 C-37.01335495 62.20077798 -37.01335495 62.20077798 -36 61 C-33.64768301 60.89918913 -31.32538053 60.86027061 -28.97265625 60.8671875 C-27.91648354 60.86575241 -27.91648354 60.86575241 -26.838974 60.86428833 C-25.34683137 60.86360659 -23.85468579 60.86546048 -22.36254883 60.86962891 C-20.07561582 60.87496937 -17.78887992 60.8696879 -15.50195312 60.86328125 C-14.05468707 60.86394219 -12.60742113 60.86522368 -11.16015625 60.8671875 C-10.47365494 60.86516327 -9.78715363 60.86313904 -9.07984924 60.86105347 C-4.22991527 60.88504236 -4.22991527 60.88504236 -2 62 C-2.00444122 61.25275665 -2.00888245 60.50551331 -2.01345825 59.73562622 C-2.05349184 52.70194454 -2.08396237 45.66830216 -2.10362434 38.63453865 C-2.11407249 35.01819127 -2.12825032 31.40193784 -2.15087891 27.78564453 C-2.1725708 24.29731189 -2.18456085 20.80906976 -2.18975449 17.3206749 C-2.19526169 15.33860029 -2.21088034 13.35656221 -2.22659302 11.37454224 C-2.22681961 9.57290115 -2.22681961 9.57290115 -2.22705078 7.73486328 C-2.231492 6.67341095 -2.23593323 5.61195862 -2.24050903 4.51834106 C-2 2 -2 2 0 0 Z " fill="#C53173" transform="translate(277,164)"/>
<path d="M0 0 C0.66 0 1.32 0 2 0 C2.02332902 7.48538793 2.04101866 14.97077202 2.05181217 22.4561882 C2.05699653 25.93320769 2.06401176 29.41020202 2.07543945 32.88720703 C2.0885392 36.89876526 2.09326492 40.91029771 2.09765625 44.921875 C2.10281754 46.15049255 2.10797882 47.37911011 2.11329651 48.6449585 C2.11377664 56.14795206 1.75463584 63.53460817 1 71 C0.34 71 -0.32 71 -1 71 C-1 71.99 -1 72.98 -1 74 C-1.66 74 -2.32 74 -3 74 C-3 75.65 -3 77.3 -3 79 C-4.485 79.495 -4.485 79.495 -6 80 C-6.03738281 80.85078125 -6.07476562 81.7015625 -6.11328125 82.578125 C-7.32189888 87.24221772 -9.77618869 89.47784913 -13.1875 92.75 C-13.75275391 93.32621094 -14.31800781 93.90242188 -14.90039062 94.49609375 C-18.41273187 97.94808549 -21.16243103 99.68129397 -26 101 C-28.33531458 102.99935694 -28.33531458 102.99935694 -30 105 C-30.66 104.67 -31.32 104.34 -32 104 C-30.88121617 102.82737096 -29.75476949 101.66204862 -28.625 100.5 C-27.99851563 99.8503125 -27.37203125 99.200625 -26.7265625 98.53125 C-25 97 -25 97 -23 97 C-21.79371992 94.66785852 -20.8345262 92.50357861 -20 90 C-18.515 89.505 -18.515 89.505 -17 89 C-15.45833358 87.62514468 -15.45833358 87.62514468 -14 86 C-12.4375 84.3125 -12.4375 84.3125 -11 83 C-10.34 83 -9.68 83 -9 83 C-8.731875 82.360625 -8.46375 81.72125 -8.1875 81.0625 C-7 79 -7 79 -4 78 C-4.061875 77.29875 -4.12375 76.5975 -4.1875 75.875 C-4 73 -4 73 -2.51530457 70.24728394 C-0.81455999 66.60260374 -0.60538682 64.17100255 -0.56762695 60.16845703 C-0.5574353 59.51409164 -0.54724365 58.85972626 -0.53674316 58.18553162 C-0.50677553 56.04286966 -0.49737276 53.9006559 -0.48828125 51.7578125 C-0.4714224 50.26421644 -0.45327054 48.77063447 -0.43388367 47.27706909 C-0.38650799 43.36121014 -0.35661861 39.44540831 -0.33044434 35.52935791 C-0.30057573 31.52726973 -0.25406716 27.5253781 -0.20898438 23.5234375 C-0.12309289 15.68238853 -0.05568509 7.84132141 0 0 Z " fill="#745FB9" transform="translate(276,167)"/>
<path d="M0 0 C0.66 0.66 1.32 1.32 2 2 C1.4946875 2.39832031 0.989375 2.79664063 0.46875 3.20703125 C-0.1809375 3.73683594 -0.830625 4.26664063 -1.5 4.8125 C-2.1496875 5.33457031 -2.799375 5.85664063 -3.46875 6.39453125 C-5.34509128 7.99204833 -5.34509128 7.99204833 -5 11 C-5.556875 11.061875 -6.11375 11.12375 -6.6875 11.1875 C-9.98942866 12.3476371 -11.62907991 14.45559795 -14 17 C-15.66666667 18.66666667 -17.33333333 20.33333333 -19 22 C-19.825 22.845625 -20.65 23.69125 -21.5 24.5625 C-23.89178403 26.89448943 -26.39394339 28.91515471 -29 31 C-32.77714996 34.59289875 -36.64580902 38.29161804 -39 43 C-39.804375 43.433125 -40.60875 43.86625 -41.4375 44.3125 C-44.41434947 46.27286429 -45.00305041 47.64662411 -46 51 C-46.99 50.67 -47.98 50.34 -49 50 C-49.33 50.66 -49.66 51.32 -50 52 C-50.21601868 49.70440674 -50.21601868 49.70440674 -50 47 C-48.55583191 45.28533936 -48.55583191 45.28533936 -46.54370117 43.72949219 C-41.811742 39.87763626 -37.57978119 35.67216351 -33.30078125 31.328125 C-31.66354388 29.678254 -30.0261701 28.02851835 -28.38867188 26.37890625 C-25.8391295 23.80447226 -23.29122942 21.22845224 -20.74584961 18.64990234 C-18.26854928 16.14241712 -15.78507999 13.64117394 -13.30078125 11.140625 C-12.54235428 10.3687384 -11.78392731 9.59685181 -11.0025177 8.80157471 C-7.55581501 5.33857469 -4.42288284 2.21280398 0 0 Z " fill="#EC2E6F" transform="translate(237,180)"/>
<path d="M0 0 C0.33 0 0.66 0 1 0 C1.35584349 4.27012183 0.55699032 5.68538291 -2 9 C-4.20966578 13.83298927 -4.20966578 13.83298927 -5 19 C-5.99 19.33 -6.98 19.66 -8 20 C-11.32813503 25.18699306 -12.24475048 29.88123809 -12 36 C-12.66 36.99 -13.32 37.98 -14 39 C-14.66 39 -15.32 39 -16 39 C-16 41.97 -16 44.94 -16 48 C-16.33 48 -16.66 48 -17 48 C-17.36789704 39.42936161 -16.85945757 32.1056398 -14 24 C-13.6596875 23.02160156 -13.319375 22.04320312 -12.96875 21.03515625 C-10.02368573 13.30436255 -5.90581769 5.90581769 0 0 Z " fill="#F33F80" transform="translate(186,228)"/>
<path d="M0 0 C0.94101563 0.00322266 1.88203125 0.00644531 2.8515625 0.00976562 C3.83640625 0.01814453 4.82125 0.02652344 5.8359375 0.03515625 C6.82851562 0.03966797 7.82109375 0.04417969 8.84375 0.04882812 C11.2995391 0.0606348 13.75520854 0.07710225 16.2109375 0.09765625 C16.2109375 0.42765625 16.2109375 0.75765625 16.2109375 1.09765625 C13.64889206 1.43484672 11.08639432 1.76752778 8.5234375 2.09765625 C7.80220703 2.19304687 7.08097656 2.2884375 6.33789062 2.38671875 C2.60100879 2.8644936 -1.01197781 3.21685419 -4.7890625 3.09765625 C-5.1190625 4.08765625 -5.4490625 5.07765625 -5.7890625 6.09765625 C-7.37272131 6.78620356 -8.96101175 7.4653384 -10.56640625 8.1015625 C-20.54292286 12.57258488 -30.62129094 19.67822734 -34.7890625 30.09765625 C-35.7790625 30.09765625 -36.7690625 30.09765625 -37.7890625 30.09765625 C-35.8090625 26.46765625 -33.8290625 22.83765625 -31.7890625 19.09765625 C-31.1290625 19.09765625 -30.4690625 19.09765625 -29.7890625 19.09765625 C-29.7890625 18.43765625 -29.7890625 17.77765625 -29.7890625 17.09765625 C-29.1290625 17.09765625 -28.4690625 17.09765625 -27.7890625 17.09765625 C-27.4590625 16.10765625 -27.1290625 15.11765625 -26.7890625 14.09765625 C-24.7578125 12.5625 -24.7578125 12.5625 -22.2890625 11.03515625 C-18.94851125 9.11372058 -18.94851125 9.11372058 -16.7890625 6.09765625 C-14.48195372 5.49869532 -12.17217532 5.1411066 -9.8203125 4.7578125 C-9.15 4.53996094 -8.4796875 4.32210937 -7.7890625 4.09765625 C-7.4590625 3.10765625 -7.1290625 2.11765625 -6.7890625 1.09765625 C-4.33631109 -0.12871945 -2.7384844 -0.01649689 0 0 Z " fill="#DF2B7A" transform="translate(223.7890625,225.90234375)"/>
<path d="M0 0 C0.66 0.33 1.32 0.66 2 1 C-1.86142318 8.00614281 -6.11143069 14.509307 -12 20 C-12.66 20 -13.32 20 -14 20 C-14 20.66 -14 21.32 -14 22 C-15.9261951 23.56390135 -17.83091818 24.97994111 -19.875 26.375 C-20.46200684 26.7776709 -21.04901367 27.1803418 -21.65380859 27.59521484 C-26.41347747 30.77392451 -31.3638213 33.71608284 -37 35 C-37.99 34.67 -38.98 34.34 -40 34 C-36.75260163 30.23985451 -33.09576996 29.28338878 -28.375 28.0625 C-25.21677664 27.0682445 -23.93473353 26.5796447 -22 24 C-21.67 23.34 -21.34 22.68 -21 22 C-20.01 22 -19.02 22 -18 22 C-18.33 21.01 -18.66 20.02 -19 19 C-17.68 19 -16.36 19 -15 19 C-15 18.34 -15 17.68 -15 17 C-13.35 16.67 -11.7 16.34 -10 16 C-10 14.68 -10 13.36 -10 12 C-9.34 12 -8.68 12 -8 12 C-8 11.01 -8 10.02 -8 9 C-5.625 6.3125 -5.625 6.3125 -3 4 C-2.34 4 -1.68 4 -1 4 C-0.67 2.68 -0.34 1.36 0 0 Z " fill="#A46EB9" transform="translate(322,256)"/>
<path d="M0 0 C0.66 0.33 1.32 0.66 2 1 C1.06409496 2.1055189 0.12620142 3.20935453 -0.8125 4.3125 C-1.33457031 4.92738281 -1.85664063 5.54226563 -2.39453125 6.17578125 C-3.87220437 7.85479182 -5.41147095 9.42698772 -7 11 C-1.55946508 10.90528156 3.88068509 10.7989527 9.32080078 10.68261719 C11.1651414 10.64472198 13.00954608 10.60980651 14.85400391 10.578125 C33.53606808 11.07474314 33.53606808 11.07474314 51 6 C48.53753762 10.80180164 48.53753762 10.80180164 46.2288208 11.65306091 C43.64859583 12.05469971 41.20123949 12.11962906 38.58886719 12.11352539 C37.50804871 12.11344986 36.42723022 12.11337433 35.31365967 12.11329651 C34.15312073 12.10813522 32.99258179 12.10297394 31.796875 12.09765625 C30.60394836 12.0962413 29.41102173 12.09482635 28.1819458 12.09336853 C24.37127171 12.08777038 20.56065634 12.07521819 16.75 12.0625 C14.16666752 12.05748476 11.58333411 12.0529219 9 12.04882812 C2.66664663 12.03780155 -3.66667249 12.02106524 -10 12 C-7.7334031 8.05493192 -5.30853424 5.13886582 -2 2 C-1.34 1.34 -0.68 0.68 0 0 Z " fill="#5D44BD" transform="translate(234,281)"/>
<path d="M0 0 C0.66 0.66 1.32 1.32 2 2 C0.576875 2.37125 0.576875 2.37125 -0.875 2.75 C-4.02789636 3.66490892 -4.02789636 3.66490892 -5.1875 5.8125 C-5.455625 6.534375 -5.72375 7.25625 -6 8 C-7.51482153 10.75422096 -8.75802645 12.78649393 -11.125 14.875 C-15.2049213 19.4989108 -14.28697327 27.99786648 -14.5625 33.9375 C-14.60568359 34.81212891 -14.64886719 35.68675781 -14.69335938 36.58789062 C-14.79846901 38.72511995 -14.89963985 40.86254238 -15 43 C-15.33 43 -15.66 43 -16 43 C-16.05886171 39.20840036 -16.09388224 35.41692081 -16.125 31.625 C-16.14175781 30.56410156 -16.15851563 29.50320313 -16.17578125 28.41015625 C-16.27820405 11.7152392 -16.27820405 11.7152392 -12.5949707 7.32543945 C-10.34401196 5.45486621 -7.89584836 4.18015501 -5.3125 2.8125 C-4.31863281 2.28269531 -3.32476562 1.75289062 -2.30078125 1.20703125 C-1.54152344 0.80871094 -0.78226563 0.41039062 0 0 Z " fill="#7B1F78" transform="translate(238,250)"/>
<path d="M0 0 C1.299375 0.00451172 2.59875 0.00902344 3.9375 0.01367188 C7.12504825 0.0253908 10.31249955 0.04179781 13.5 0.0625 C12.88550003 3.40072957 12.15439171 6.08459492 10.5 9.0625 C10.005 6.0925 10.005 6.0925 9.5 3.0625 C8.63721436 3.07297363 7.77442871 3.08344727 6.88549805 3.09423828 C3.68189479 3.12833983 0.4783841 3.15340857 -2.7253418 3.17236328 C-4.11144048 3.1824157 -5.49751799 3.1960597 -6.88354492 3.21337891 C-8.8766975 3.23765952 -10.87000533 3.24792031 -12.86328125 3.2578125 C-14.66212769 3.27352295 -14.66212769 3.27352295 -16.49731445 3.28955078 C-19.5 3.0625 -19.5 3.0625 -22.5 1.0625 C-15.00009325 -0.14013656 -7.5817215 -0.05008251 0 0 Z " fill="#A4246F" transform="translate(262.5,226.9375)"/>
<path d="M0 0 C-2.90600261 1.25664978 -4.79604584 2 -8 2 C-8.33 2.99 -8.66 3.98 -9 5 C-9.70125 5.391875 -10.4025 5.78375 -11.125 6.1875 C-15.22559327 8.77265663 -17.93986264 12.2825539 -21 16 C-21.7425 16.886875 -22.485 17.77375 -23.25 18.6875 C-25.02734874 21.0361394 -26.53953872 23.44419276 -28 26 C-28.66 25.67 -29.32 25.34 -30 25 C-28.02 21.37 -26.04 17.74 -24 14 C-23.34 14 -22.68 14 -22 14 C-22 13.34 -22 12.68 -22 12 C-21.34 12 -20.68 12 -20 12 C-19.67 11.01 -19.34 10.02 -19 9 C-16.96875 7.46484375 -16.96875 7.46484375 -14.5 5.9375 C-11.15944875 4.01606433 -11.15944875 4.01606433 -9 1 C-3.6407767 -1.21359223 -3.6407767 -1.21359223 0 0 Z " fill="#E62A85" transform="translate(216,231)"/>
<path d="M0 0 C0.33 0 0.66 0 1 0 C1 14.19 1 28.38 1 43 C-1.03118251 38.93763498 -1.20126856 37.4878836 -1.0625 33.125 C-0.97179343 30.04097678 -0.93348384 27.32414919 -1.5546875 24.296875 C-2.2034564 19.49370873 -1.58603875 14.92464719 -1.0625 10.125 C-0.96259766 9.15046875 -0.86269531 8.1759375 -0.75976562 7.171875 C-0.51358634 4.7804191 -0.26013937 2.38997076 0 0 Z " fill="#AD3499" transform="translate(221,269)"/>
<path d="M0 0 C0.33 0 0.66 0 1 0 C1.11802706 4.3956001 1.18785559 8.79078286 1.25 13.1875 C1.28351563 14.41404297 1.31703125 15.64058594 1.3515625 16.90429688 C1.44348984 25.61441267 0.04193562 32.84215969 -3 41 C-3.33 41 -3.66 41 -4 41 C-4.20288303 35.82648283 -4.25094414 31.76670524 -2 27 C-1.18316111 23.54913841 -0.82846596 20.23823984 -0.68359375 16.69921875 C-0.64169922 15.72275391 -0.59980469 14.74628906 -0.55664062 13.74023438 C-0.51732422 12.73283203 -0.47800781 11.72542969 -0.4375 10.6875 C-0.39431641 9.66076172 -0.35113281 8.63402344 -0.30664062 7.57617188 C-0.20093175 5.05090431 -0.09883532 2.52554438 0 0 Z " fill="#5C9BD5" transform="translate(329,208)"/>
<path d="M0 0 C-0.99 0.66 -1.98 1.32 -3 2 C-3 2.66 -3 3.32 -3 4 C-3.99 4 -4.98 4 -6 4 C-6.268125 4.78375 -6.53625 5.5675 -6.8125 6.375 C-8 9 -8 9 -11 11 C-13.26171875 11.6328125 -13.26171875 11.6328125 -15.6875 12.125 C-16.49574219 12.29257812 -17.30398438 12.46015625 -18.13671875 12.6328125 C-18.75160156 12.75398438 -19.36648438 12.87515625 -20 13 C-19.67 11.35 -19.34 9.7 -19 8 C-18.31292969 7.92523438 -17.62585938 7.85046875 -16.91796875 7.7734375 C-14.1560755 7.37041445 -11.63859674 6.91795841 -9 6 C-6.98958997 3.06550592 -6.98958997 3.06550592 -6 0 C-3 -1 -3 -1 0 0 Z " fill="#484EDF" transform="translate(307,274)"/>
<path d="M0 0 C0.66 0.33 1.32 0.66 2 1 C-2.48839026 7.16405596 -6.36208809 12.085334 -13 16 C-14.75149165 17.58245275 -14.75149165 17.58245275 -16 19 C-16.66 18.67 -17.32 18.34 -18 18 C-16.88121617 16.82737096 -15.75476949 15.66204862 -14.625 14.5 C-13.99851563 13.8503125 -13.37203125 13.200625 -12.7265625 12.53125 C-11 11 -11 11 -9 11 C-7.79371992 8.66785852 -6.8345262 6.50357861 -6 4 C-5.01 3.67 -4.02 3.34 -3 3 C-1.33289654 1.50014391 -1.33289654 1.50014391 0 0 Z " fill="#5138AE" transform="translate(262,253)"/>
<path d="M0 0 C0.33 0 0.66 0 1 0 C1.33 10.56 1.66 21.12 2 32 C2.99 32.33 3.98 32.66 5 33 C4.505 35.475 4.505 35.475 4 38 C2.68 37.67 1.36 37.34 0 37 C0 24.79 0 12.58 0 0 Z " fill="#E335AE" transform="translate(170,296)"/>
<path d="M0 0 C0.66 0.33 1.32 0.66 2 1 C-1.92731778 8.12570158 -6.39232555 14.10767202 -12 20 C-12.66 19.67 -13.32 19.34 -14 19 C-13.01 17.515 -13.01 17.515 -12 16 C-11.34 16 -10.68 16 -10 16 C-10 14.68 -10 13.36 -10 12 C-9.34 12 -8.68 12 -8 12 C-8 11.01 -8 10.02 -8 9 C-5.625 6.3125 -5.625 6.3125 -3 4 C-2.34 4 -1.68 4 -1 4 C-0.67 2.68 -0.34 1.36 0 0 Z " fill="#9D79BA" transform="translate(322,256)"/>
<path d="M0 0 C0 0.33 0 0.66 0 1 C-2.64 1 -5.28 1 -8 1 C-8 1.66 -8 2.32 -8 3 C-9.02480469 2.98839844 -10.04960937 2.97679687 -11.10546875 2.96484375 C-12.466144 2.95545978 -13.82682124 2.94636023 -15.1875 2.9375 C-15.86103516 2.92912109 -16.53457031 2.92074219 -17.22851562 2.91210938 C-20.95434131 2.89393462 -24.3788042 3.10700608 -28 4 C-28.33 3.34 -28.66 2.68 -29 2 C-19.22907228 0.12612345 -9.89644867 -0.22867275 0 0 Z " fill="#BC2678" transform="translate(248,227)"/>
<path d="M0 0 C2.40180965 4.26035283 2.30738073 7.15875348 2 12 C1.01 13.485 1.01 13.485 0 15 C-0.66 15 -1.32 15 -2 15 C-2 17.97 -2 20.94 -2 24 C-2.33 24 -2.66 24 -3 24 C-3.36741339 15.44062871 -2.73977333 8.13777913 0 0 Z " fill="#F54C8F" transform="translate(172,252)"/>
<path d="M0 0 C0 3.78319079 -0.39657934 7.25879194 -1 11 C-1.99 11.495 -1.99 11.495 -3 12 C-3 9.69 -3 7.38 -3 5 C-6.63 4.67 -10.26 4.34 -14 4 C-11.37548383 1.37548383 -9.5122172 1.4167132 -5.875 0.875 C-4.77929688 0.70742187 -3.68359375 0.53984375 -2.5546875 0.3671875 C-1.71164062 0.24601563 -0.86859375 0.12484375 0 0 Z " fill="#D4325E" transform="translate(276,163)"/>
<path d="M0 0 C0.66 0.66 1.32 1.32 2 2 C0.54462432 2.83848804 -0.91440373 3.67063934 -2.375 4.5 C-3.59316406 5.19609375 -3.59316406 5.19609375 -4.8359375 5.90625 C-7 7 -7 7 -9 7 C-9 7.66 -9 8.32 -9 9 C-9.66 9 -10.32 9 -11 9 C-11.33 10.32 -11.66 11.64 -12 13 C-12.66 13 -13.32 13 -14 13 C-14.33 13.99 -14.66 14.98 -15 16 C-14.38665913 9.49858677 -14.38665913 9.49858677 -12.8125 7.46875 C-10.46545809 5.56683673 -7.98100695 4.22523897 -5.3125 2.8125 C-4.31863281 2.28269531 -3.32476562 1.75289062 -2.30078125 1.20703125 C-1.54152344 0.80871094 -0.78226563 0.41039062 0 0 Z " fill="#952A84" transform="translate(238,250)"/>
<path d="M0 0 C0 0.33 0 0.66 0 1 C-2.31 1.33 -4.62 1.66 -7 2 C-6.67 2.66 -6.34 3.32 -6 4 C-7.95565258 4.38873828 -9.91466504 4.76060833 -11.875 5.125 C-12.96554687 5.33382812 -14.05609375 5.54265625 -15.1796875 5.7578125 C-16.57574219 5.87769531 -16.57574219 5.87769531 -18 6 C-18.66 5.34 -19.32 4.68 -20 4 C-13.16088115 1.44672896 -7.33813334 -0.5644718 0 0 Z " fill="#E95370" transform="translate(271,164)"/>
<path d="M0 0 C1.07349791 4.29399165 0.79682816 5.19495213 -1 9 C-1.33 9 -1.66 9 -2 9 C-2.33 7.02 -2.66 5.04 -3 3 C-4.03060547 3.03480469 -4.03060547 3.03480469 -5.08203125 3.0703125 C-6.43361328 3.09738281 -6.43361328 3.09738281 -7.8125 3.125 C-8.70582031 3.14820313 -9.59914063 3.17140625 -10.51953125 3.1953125 C-13 3 -13 3 -16 1 C-8.08 0.505 -8.08 0.505 0 0 Z " fill="#862775" transform="translate(275,227)"/>
<path d="M0 0 C1 3 1 3 -0.375 5.875 C-0.91125 6.90625 -1.4475 7.9375 -2 9 C-2.12375 10.2375 -2.12375 10.2375 -2.25 11.5 C-3.45705624 15.5235208 -6.73924421 17.5225067 -10 20 C-10.66 19.67 -11.32 19.34 -12 19 C-11.04882866 17.8274869 -10.08882991 16.66212985 -9.125 15.5 C-8.59132813 14.8503125 -8.05765625 14.200625 -7.5078125 13.53125 C-6.76144531 12.77328125 -6.76144531 12.77328125 -6 12 C-5.34 12 -4.68 12 -4 12 C-3.896875 11.13375 -3.79375 10.2675 -3.6875 9.375 C-2.96601586 5.83316877 -1.72876739 3.15687958 0 0 Z " fill="#6D328B" transform="translate(275,231)"/>
<path d="M0 0 C3.125 -0.1875 3.125 -0.1875 6 0 C0.41075795 5.8997555 0.41075795 5.8997555 -3 7 C-5.25 6.625 -5.25 6.625 -7 6 C-6.21625 5.566875 -5.4325 5.13375 -4.625 4.6875 C-1.78301625 3.10779753 -1.78301625 3.10779753 0 0 Z " fill="#E22B6A" transform="translate(251,169)"/>
<path d="M0 0 C-1.155 0.556875 -2.31 1.11375 -3.5 1.6875 C-7.31209947 3.57320045 -10.82033894 5.75644537 -14.3359375 8.14453125 C-14.88507813 8.42683594 -15.43421875 8.70914063 -16 9 C-16.66 8.67 -17.32 8.34 -18 8 C-17.030625 7.38125 -16.06125 6.7625 -15.0625 6.125 C-11.97164638 4.34321154 -11.97164638 4.34321154 -11 2 C-9.2578125 1.11328125 -9.2578125 1.11328125 -7.125 0.3125 C-6.42632812 0.04050781 -5.72765625 -0.23148438 -5.0078125 -0.51171875 C-3 -1 -3 -1 0 0 Z " fill="#D4277D" transform="translate(219,231)"/>
<path d="M0 0 C0 4.59154392 -2.90717721 6.81301632 -6 10 C-7.6280092 11.38026867 -9.28043882 12.73561678 -11 14 C-11.66 13.67 -12.32 13.34 -13 13 C-8.71 8.71 -4.42 4.42 0 0 Z " fill="#E53067" transform="translate(222,193)"/>
<path d="M0 0 C0.33 0 0.66 0 1 0 C1.25485425 3.26936494 1.47442831 6.54016741 1.6875 9.8125 C1.76033203 10.74126953 1.83316406 11.67003906 1.90820312 12.62695312 C1.96298828 13.51962891 2.01777344 14.41230469 2.07421875 15.33203125 C2.13182373 16.15421143 2.18942871 16.9763916 2.2487793 17.82348633 C2 20 2 20 -1 23 C-0.67 15.41 -0.34 7.82 0 0 Z " fill="#4F7CE0" transform="translate(278,212)"/>
<path d="M0 0 C0.33 0 0.66 0 1 0 C1.125 3.375 1.125 3.375 1 7 C0.34 7.66 -0.32 8.32 -1 9 C-1.99 9 -2.98 9 -4 9 C-2.25 2.25 -2.25 2.25 0 0 Z " fill="#AA37B6" transform="translate(220,325)"/>
<path d="M0 0 C0.66 0.33 1.32 0.66 2 1 C1.85969405 4.01657791 1.70648535 6.23841273 -0.40234375 8.51171875 C-1.88904235 9.73256066 -3.44134898 10.87246522 -5 12 C-5 11.01 -5 10.02 -5 9 C-4.34 8.67 -3.68 8.34 -3 8 C-2.34444881 5.47266765 -2.34444881 5.47266765 -2 3 C-1.34 3 -0.68 3 0 3 C0 2.01 0 1.02 0 0 Z " fill="#3F67E8" transform="translate(275,238)"/>
<path d="M0 0 C0.66 0.33 1.32 0.66 2 1 C1.01 1 0.02 1 -1 1 C-0.67 0.67 -0.34 0.34 0 0 Z M-4 3 C-3.34 3.33 -2.68 3.66 -2 4 C-3.375 6.5 -3.375 6.5 -5 9 C-5.66 9 -6.32 9 -7 9 C-6 7 -5 5 -4 3 Z M-13 13 C-12.34 13 -11.68 13 -11 13 C-11.33 13.99 -11.66 14.98 -12 16 C-12.99 16.33 -13.98 16.66 -15 17 C-14.34 15.68 -13.68 14.36 -13 13 Z " fill="#F22875" transform="translate(227,190)"/>
<path d="M0 0 C1.04449911 3.13349732 0.93423645 3.98968256 0 7 C-0.66 7 -1.32 7 -2 7 C-2.33 8.32 -2.66 9.64 -3 11 C-3.66 11 -4.32 11 -5 11 C-4.44271087 7.65626525 -3.64826111 4.96687001 -2 2 C-1.34 2 -0.68 2 0 2 C0 1.34 0 0.68 0 0 Z " fill="#5376D6" transform="translate(324,249)"/>
<path d="M0 0 C0.99 0.33 1.98 0.66 3 1 C1.63016497 4.16115776 1.0109362 4.9927092 -2 7 C-3.32 7 -4.64 7 -6 7 C-6 6.34 -6 5.68 -6 5 C-5.01 5 -4.02 5 -3 5 C-3.33 4.01 -3.66 3.02 -4 2 C-2.68 2 -1.36 2 0 2 C0 1.34 0 0.68 0 0 Z " fill="#725DC5" transform="translate(307,273)"/>
<path d="M0 0 C0.66 0.33 1.32 0.66 2 1 C0.55424733 4.3734229 -1.2049086 6.61595146 -4 9 C-6.25 9.75 -6.25 9.75 -8 10 C-8 8 -8 8 -5.6875 5.5625 C-4.800625 4.716875 -3.91375 3.87125 -3 3 C-2.401875 2.401875 -1.80375 1.80375 -1.1875 1.1875 C-0.795625 0.795625 -0.40375 0.40375 0 0 Z " fill="#5048D2" transform="translate(244,272)"/>
<path d="M0 0 C0.33 0 0.66 0 1 0 C1.3690205 9.41002278 1.3690205 9.41002278 -1 14 C-1.33 14 -1.66 14 -2 14 C-2.3690205 4.58997722 -2.3690205 4.58997722 0 0 Z " fill="#4D88DB" transform="translate(327,235)"/>
<path d="M0 0 C0.66 0.33 1.32 0.66 2 1 C0.82421875 2.953125 0.82421875 2.953125 -1 5 C-3.48046875 5.609375 -3.48046875 5.609375 -6.1875 5.75 C-7.08855469 5.80671875 -7.98960937 5.8634375 -8.91796875 5.921875 C-9.60503906 5.94765625 -10.29210937 5.9734375 -11 6 C-8.60905766 4.80193562 -6.21388584 3.61464992 -3.8125 2.4375 C-1.16236354 1.2649703 -1.16236354 1.2649703 0 0 Z " fill="#8857C7" transform="translate(283,287)"/>
<path d="M0 0 C-0.99 0.66 -1.98 1.32 -3 2 C-3 2.66 -3 3.32 -3 4 C-3.99 4 -4.98 4 -6 4 C-6 4.66 -6 5.32 -6 6 C-6.66 5.67 -7.32 5.34 -8 5 C-7.1875 2.5625 -7.1875 2.5625 -6 0 C-3 -1 -3 -1 0 0 Z " fill="#3E54E6" transform="translate(307,274)"/>
<path d="M0 0 C0.66 0.33 1.32 0.66 2 1 C-0.21934164 4.32901247 -1.34683329 4.75023244 -5 6 C-5.66 5.34 -6.32 4.68 -7 4 C-1.7265625 0.77734375 -1.7265625 0.77734375 0 0 Z " fill="#E9526D" transform="translate(249,169)"/>
<path d="M0 0 C1.32 0.33 2.64 0.66 4 1 C2.50260417 2.23697917 1.00520833 3.47395833 -0.4921875 4.7109375 C-1.71051161 5.75250992 -2.86660097 6.86660097 -4 8 C-4 6.68 -4 5.36 -4 4 C-2.68 3.67 -1.36 3.34 0 3 C0 2.01 0 1.02 0 0 Z " fill="#582489" transform="translate(228,284)"/>
</svg>
